<?xml version="1.0" encoding="utf-8"?>
<!-- Generator: Adobe Illustrator 28.4.0, SVG Export Plug-In . SVG Version: 6.00 Build 0)  -->
<svg version="1.1" baseProfile="basic" id="Layer_1"
	 xmlns="http://www.w3.org/2000/svg" xmlns:xlink="http://www.w3.org/1999/xlink" x="0px" y="0px" viewBox="0 0 1080 1080"
	 xml:space="preserve">
<g>
	<path style="fill:#758994;" d="M1023.86,148.99C973.73,56.61,888.92,6,784.4,10.2c-86.94,3.49-162.92,39.62-226.1,100.06
		c-13.69,13.08-22.33,14.19-36.78,0.29C480.82,71.37,433.41,42.3,379,25.75C276.16-5.52,181.44,7.01,103.06,84.82
		c-58.87,58.43-84.23,132-81.55,220.43c-2.3,62.21,14.27,126.41,36.33,189.54c38.44,110.03,98.48,207.56,171.24,298.04
		c85.65,106.5,183.1,199.69,299.01,273.01c9.17,5.81,13.97,5.53,22.9,0.24c37.53-22.19,72.56-48,105.8-75.75
		C747,915.06,827.02,830.28,895.05,733.95c71.35-101.03,127.67-208.57,151.56-330.75C1063.52,316.69,1068.15,230.58,1023.86,148.99z
		 M940.27,71.51c37.69,28.3,64.97,64.39,84.25,114.83c-48.25-9.1-91.63-17.21-134.97-25.47c-11.58-2.22-10.88-9.57-6.83-17.95
		c10.79-22.35,21.84-44.59,32.33-67.08C921.64,61.73,930.64,64.28,940.27,71.51z M874.15,186.97c1.46-8.83,1.13-16.01,13.07-13.42
		c39.85,8.65,79.71,17.28,119.62,25.67c10.97,2.3,16.09,5.86,8.79,17.74c-27.69,45.04-54.84,90.42-81.88,135.15
		C882.57,306.93,863.39,252.34,874.15,186.97z M911.21,370.57c-24.86,12.88-49.84,25.33-79.76,34.4
		c8.2-39.85,20.31-75.82,39.96-113.09c15.89,21.96,29.46,41.35,43.72,60.21C921.49,360.51,920.92,365.55,911.21,370.57z
		 M894.09,44.01c15.75,6.26,17.11,13.02,9.44,26.93c-13.96,25.33-26.38,51.5-40.41,79.24c-44.64-38.71-89.11-74.14-132.49-118
		C790.11,18.49,842.48,23.51,894.09,44.01z M789.18,249.48c-16.65-5.25-33.21-10.73-56.78-18.37
		c40.46-18.8,74.83-34.51,108.96-50.76c13.27-6.32,15.59-1.76,17.11,11.49C867.24,268.86,862.99,272.72,789.18,249.48z
		 M749.89,71.23c32.85,29.17,68.12,55.67,100.62,89.94c-47.52,21.36-92.59,41.44-137.49,61.93c-10.12,4.62-19.64,0.27-28.43-1.91
		c-41.82-10.33-83.24-22.25-129.15-34.78c40.7-38,78.52-73.34,116.41-108.6c3.22-2.99,7.11-5.26,10.4-8.19
		C715.41,40,715.08,40.33,749.89,71.23z M565.51,121.21c32.34-27.82,67.87-50.32,109.59-65.92
		c-40.43,37.57-80.86,75.15-122.71,114.03C543.72,147.29,550.47,134.13,565.51,121.21z M587.78,210.6
		c27.08,6.35,53.96,13.48,80.93,20.26c-0.83,2.33-1.68,4.67-2.52,7.01c-34.5,7.59-69.09,14.79-103.44,23.01
		c-11.13,2.65-14.75-0.86-14.32-11.27c0.07-1.77-0.05-3.55-0.14-5.32C546.29,201.11,546.34,200.88,587.78,210.6z M625.51,259.62
		c76.66-28.77,147.71-0.31,220.35,15.19c12.17,2.59,11.15,11.46,8.05,20.84c-22.55,68.16-46.99,134.96-88.92,194.83
		c-35.95,51.32-67.51,105.82-99.24,159.95c-19.72,33.63-53.56,50.73-81.57,74.37c-14.38,12.14-27.36,35-45.58,32.61
		c-15.71-2.05-28.78-21.6-43.77-32.35c-45.69-32.75-83.83-71.17-111.16-121.67c-29.47-54.43-64.71-105.72-97.26-158.5
		c-29.19-47.33-41.15-101.51-60.27-152.84c-2.4-6.44-2.76-12.59,5.6-14.69c47.21-11.89,94.46-23.6,139.63-34.86
		c34.4,7.44,67.41,11.52,98.28,21.95C522.87,282.43,575.14,278.51,625.51,259.62z M811.01,600.39
		c0.24,13.82-12.73,15.98-22.21,19.39c-34.05,12.25-68.39,23.66-109.63,37.79c42.76-69.6,82.38-134.07,121.99-198.54
		c2.05,0.19,4.09,0.37,6.14,0.56C808.59,506.53,810.22,553.44,811.01,600.39z M647.24,693.28c-4.72,51.75-21.25,93.96-29.06,140.31
		c-22.67-16.73-40.8-35.36-58.7-54.36c-9.24-9.82-1.02-13.75,4.85-18.55C590.08,739.57,615.99,718.64,647.24,693.28z M519.61,780.22
		c-17.52,18.19-34.92,36.34-57.15,52.97c-12.21-46.13-24.09-89.75-31.03-140.03c30.86,24.69,58.05,46.47,85.29,68.19
		C523.54,766.81,528.06,771.45,519.61,780.22z M268.9,460.09c2.68-0.81,5.35-1.62,8.03-2.44c40.34,65.16,80.69,130.34,124.01,200.33
		c-39.25-13.62-71.5-25.82-104.41-35.86c-20.83-6.35-29.77-16.17-28.31-39.74C270.71,541.76,268.9,500.87,268.9,460.09z
		 M165.25,353.03c13.86-18.2,27.17-36.8,42.24-57.33c20.41,34.35,29.39,70.81,41.78,109.55c-31.32-7.88-54.61-24.46-80.16-36.11
		C160.58,365.26,159.45,360.65,165.25,353.03z M145.3,348.81c-26.35-42.7-53.34-86.96-80.91-130.85
		c-7.93-12.62-3.23-16.41,9.23-18.97c38.99-8,77.83-16.73,116.74-25.14c9.03-1.95,15.01-0.97,15.87,10.87
		C210.85,248.12,200.5,305.96,145.3,348.81z M218.51,253.68c0.36-22.2,0.7-44.41,0.85-66.62c0.09-13.48,7.96-11.59,15.95-7.9
		c35.29,16.26,70.44,32.8,108.46,50.55c-37.55,19.23-76.71,23.06-113.76,33.65C222.42,265.52,218.39,261.77,218.51,253.68z
		 M532.3,224.51c-1.07,46.48,5.25,40.31-36.74,31.23c-26.97-5.83-55.17-8.27-86.18-24.84c40.56-9.7,75.45-18.09,110.37-26.38
		c7.68-1.82,11.86,1.47,12.26,9.37C532.19,217.42,532.38,220.97,532.3,224.51z M530.03,171.67
		c-42.28-39.18-81.37-75.4-123.57-114.51C462.79,67.64,533.94,132.44,530.03,171.67z M374.94,46.42
		c47.88,45.71,96.01,91.17,143.99,136.78c0.45,0.42,0.05,1.71,0.05,3.23c-44.51,16.3-91.18,25.78-137.25,37.44
		c-6.59,1.67-12.15,0.62-17.93-1.98c-44.19-19.93-88.38-39.86-134.06-60.44c23.58-29.77,54.3-48.31,79.39-72.93
		c13.14-12.88,28-24.28,41.33-37.29C356.9,44.96,364.01,35.98,374.94,46.42z M185.09,44.68c51.1-21.65,103.79-26.28,166.35-11.79
		c-44.98,38.97-85.37,73.84-125.57,108.93c-9.57,8.36-13.39,2.35-17.23-5.69c-11.79-24.65-23.43-49.38-35.68-73.81
		C165.91,48.29,178.27,47.58,185.09,44.68z M61.28,170.33c18.67-40.94,44.94-75.56,82.53-101.11c8.53-5.79,13.73-5.25,18.49,4.62
		c11.13,23.07,23.15,45.7,34.52,68.65c3.81,7.67,5.85,15.83-6.11,18.19c-39.88,7.84-79.8,15.41-115.51,22.27
		C59.34,185.32,56.45,180.92,61.28,170.33z M43.29,381.95c-10.68-53.29-15.22-106.37,3.87-165.99
		c29.95,49.65,56.19,93.61,83.03,137.21c4.72,7.67,3.36,10.12-4.55,12.92c-21.7,7.66-43.12,16.11-64.7,24.11
		C52.48,393.32,45.62,393.6,43.29,381.95z M50.73,418.02c-1.96-8.66,2.87-11.07,9-13.08c24-7.92,48.05-15.69,74.99-24.46
		c-15.35,50.92-29.71,98.56-46.03,152.72C68.36,493.14,59.24,455.72,50.73,418.02z M152.08,659.81
		c-13.88-29.48-35.44-54.96-47.34-91.68c47.75,16.18,92.4,28.65,137.49,49.55c-25.67,16.72-48.48,31.6-71.32,46.45
		C163.21,669.13,156.98,670.25,152.08,659.81z M249.62,791.37c-34.8-33.22-54.54-68.85-77.91-101.68
		c-4.47-6.28-0.92-9.03,4.52-11.99c24.62-13.42,45.13-33.66,73.39-44.78V791.37z M253.1,579.79c1.23,21.68-6.33,23.09-24.54,15.81
		c-37.78-15.09-76.25-28.49-114.71-41.77c-12.18-4.21-14.15-10.14-10.32-21.86c15.08-46.24,29.47-92.72,43.85-139.19
		c2.76-8.9,5.81-15.09,16.27-8.35c2.18,1.39,4.99,1.8,7.45,2.79c85.91,34.29,85.91,34.29,81.72,126.04
		C252.82,535.44,251.84,557.68,253.1,579.79z M262.05,783.95c3-20.99,2.83-42.42,4.05-63.67c0.44,0,0.88,0,1.32-0.01
		c0-24.82,0.44-49.64-0.17-74.44c-0.34-14.17,3.44-19.56,18.27-13.93c38.81,14.75,77.82,29,116.92,42.98
		c9.91,3.55,12.77,10.36,14.6,19.82c8.07,41.69,16.59,83.29,25.46,124.81c3.45,16.16,1.11,22.39-17.98,18.4
		c-45.9-9.6-92.18-17.47-138.45-25.08C268.65,809.98,259.15,804.2,262.05,783.95z M364.76,918.79
		c-29.78-28.44-61.22-55.37-86.76-92.69c56.48,4.69,106.33,22.05,158.07,30.05c1.85,2.77,3.71,5.55,5.55,8.33
		c-20.36,18-40.88,35.85-61.01,54.12C374.86,923.8,370.39,924.17,364.76,918.79z M424.1,971.3c-12.05-12.47-36.1-17.32-36.76-34.87
		c-0.6-16.29,21.76-23.56,33.06-35.75c34.26-36.94,35.46-37.04,52.36,11.26c15,42.86,36.64,83.31,49.71,133.71
		C486.24,1018.73,451.64,999.78,424.1,971.3z M539.7,1045.05c-24.67-63.83-47.33-121.92-69.51-180.18
		c-6.14-16.15,7.69-24.6,16.63-33c14.17-13.3,29.8-25.1,41.42-40.9c7.66-10.41,14.55-11.19,22.9-0.79
		c6.63,8.25,13.74,16.22,21.34,23.59c42.04,40.74,42.22,40.7,21.1,94.72C576.57,952.03,559.28,995.46,539.7,1045.05z M690.75,938.29
		c-3.02,17.03-29.39,30.74-46.69,44.26c-26.33,20.58-53.78,39.72-83.42,61.45c-0.19-23.97,10.66-40.78,17.01-58.61
		c12.14-34.11,26.86-67.3,39.05-101.39c5.71-15.97,11.78-18.29,23.09-5.67c2.96,3.3,6.88,5.99,8.97,9.72
		C660.08,908.18,694.55,916.75,690.75,938.29z M711.76,921.06c-7.81,6.62-10.82-1.8-14.79-5.36
		c-19.07-17.07-37.85-34.47-56.73-51.75c1.11-2.61,2.23-5.22,3.34-7.83c51.14-8.14,100.7-24.17,159.42-30.54
		C773.19,863.27,744.09,893.63,711.76,921.06z M798,811.88c-48.98,8.2-97.85,17.12-146.61,26.63c-16.15,3.14-17.84-1.93-14.68-16.35
		c9.11-41.56,16.83-83.41,25.25-125.12c1.95-9.61,4.27-18.38,15.72-22.39c39.28-13.76,78.37-28.1,117.27-42.89
		c12.6-4.79,17.11-2.63,17.38,11.54c0.47,25.73,2.61,51.43,4.06,77.15c0.28,0.01,0.56,0.02,0.84,0.02c0,22.2-0.99,44.47,0.33,66.59
		C818.51,802.5,813.37,809.31,798,811.88z M907.08,691.87c-22.85,32.03-43.55,65.71-75.81,98.99V631.19
		c25.22,16.29,48.58,31.97,72.61,46.52C911.32,682.23,911.59,685.53,907.08,691.87z M927.68,659.87
		c-4.55,10.18-10.98,9.19-19.02,3.93c-22.79-14.93-45.79-29.52-71.7-46.17c45.77-20.65,90.55-33.29,138.51-49.77
		C962.88,604.47,941.05,629.94,927.68,659.87z M965.88,554.02c-39.9,14.11-79.4,29.37-118.86,44.73
		c-15.84,6.17-22.61,3.42-21.6-15.17c1.23-22.94,0.29-46,0.29-66.52c-0.85-19.3,0.26-36.44-2.73-52.84
		c-5.51-30.29,7.81-45.78,35.18-54.89c18.35-6.11,35.88-14.95,53.27-23.58c10.87-5.4,17.26-5.31,21.46,7.85
		c14.75,46.22,32.07,91.62,43.62,138.89C979.32,543.98,978.23,549.64,965.88,554.02z M1009.04,490.32
		c-4.42,12.74-6.19,27.23-19.02,40C974.2,480,959.28,432.57,943.25,381.6C1039.34,402.48,1039.53,402.54,1009.04,490.32z
		 M1037.73,379.1c-2.78,15.54-8.93,16.81-20.8,12.14c-21.33-8.39-42.46-17.32-63.94-25.34c-7.56-2.82-10.23-5.75-5.51-13.19
		c27.8-43.75,55.48-87.59,85.24-134.63C1048.74,273.86,1047.21,326.17,1037.73,379.1z"/>
	<path style="fill:#B6CED8;" d="M280.07,21.87c29.81,0,61.92,5.17,95.43,15.36c50.97,15.5,97.3,43.08,137.7,81.96
		c6.45,6.21,15.3,13.33,26.55,13.33c11.11,0,19.8-6.87,26.84-13.6c31.07-29.72,64.97-52.98,100.77-69.12
		c37.01-16.69,76.54-25.98,117.51-27.62c3.83-0.15,7.7-0.23,11.5-0.23c46.8,0,89.36,11.58,126.51,34.43
		c36.91,22.7,67.33,55.78,90.42,98.33c19.76,36.41,30.52,75.72,32.89,120.17c1.94,36.38-1.67,76.42-11.36,126.01
		c-11.23,57.46-29.9,113.22-57.05,170.46c-23.94,50.47-54.21,101.39-92.54,155.66c-33.07,46.82-70.01,92.19-109.79,134.83
		c-38.65,41.42-81.16,81.55-126.36,119.27c-35.95,30.01-70.04,54.42-104.23,74.64c-3.61,2.14-4.89,2.37-5.27,2.37
		c-0.3,0-1.56-0.17-5.11-2.42c-107.68-68.12-204.53-156.57-296.07-270.39c-78.98-98.21-134.34-194.53-169.26-294.48
		c-12.29-35.16-21.08-65.78-26.88-93.6c-6.96-33.36-9.83-63.31-8.79-91.53l0.01-0.4l-0.01-0.4c-1.31-43.07,4.4-82.43,16.98-117
		c12.83-35.27,33.36-67.09,61.03-94.55c24.47-24.3,51.41-42.61,80.06-54.44C218.94,27.6,248.71,21.87,280.07,21.87 M280.07,9.87
		c-64.68,0-124.52,22.84-177.02,74.95c-58.87,58.43-84.23,132-81.55,220.43c-2.3,62.21,14.27,126.41,36.33,189.54
		c38.44,110.03,98.48,207.56,171.24,298.04c85.65,106.5,183.1,199.69,299.01,273.01c4.58,2.9,8.06,4.28,11.52,4.28
		c3.47,0,6.91-1.39,11.38-4.04c37.53-22.19,72.56-48,105.8-75.75C747,915.06,827.02,830.28,895.05,733.95
		c71.35-101.03,127.67-208.57,151.56-330.75c16.91-86.51,21.53-172.62-22.76-254.21C975.65,60.16,895.4,9.95,796.37,9.95
		c-3.95,0-7.96,0.08-11.97,0.24c-86.94,3.49-162.92,39.62-226.1,100.06c-7.02,6.71-12.71,10.27-18.54,10.27
		c-5.54,0-11.2-3.21-18.23-9.98C480.82,71.37,433.41,42.3,379,25.75C345.03,15.42,311.97,9.87,280.07,9.87L280.07,9.87z"/>
</g>
</svg>
