<?xml version="1.0" encoding="UTF-8"?>
<svg id="Layer_1" data-name="Layer 1" xmlns="http://www.w3.org/2000/svg" version="1.1" viewBox="0 0 1080 1080">
  <defs>
    <style>
      .cls-1 {
        fill: #758994;
        stroke-width: 0px;
      }
    </style>
  </defs>
  <path class="cls-1" d="M290.84,427.2c-1.29-42.5,10.9-77.85,39.18-105.93,37.67-37.39,83.19-43.42,132.61-28.39,26.15,7.95,48.93,21.93,68.49,40.75,6.94,6.68,11.09,6.15,17.67-.14,30.36-29.04,66.87-46.41,108.65-48.08,50.23-2.02,90.99,22.3,115.08,66.7,21.28,39.21,19.06,80.59,10.93,122.16-11.48,58.72-38.55,110.4-72.83,158.94-32.7,46.29-71.15,87.04-114.5,123.21-15.98,13.33-32.82,25.74-50.85,36.4-4.29,2.54-6.6,2.67-11-.12-55.7-35.23-102.53-80.02-143.69-131.2-34.97-43.48-63.82-90.35-82.29-143.22-10.6-30.33-18.56-61.19-17.45-91.08ZM458.96,397.04c-21.71,5.41-44.41,11.04-67.1,16.75-4.01,1.01-3.85,3.96-2.69,7.06,9.19,24.67,14.94,50.7,28.97,73.45,15.64,25.36,32.57,50.01,46.74,76.17,13.14,24.27,31.47,42.73,53.42,58.47,7.21,5.17,13.49,14.56,21.04,15.55,8.76,1.14,15-9.84,21.91-15.67,13.46-11.36,29.72-19.58,39.2-35.74,15.25-26.01,30.41-52.2,47.69-76.87,20.15-28.77,31.9-60.87,42.73-93.63,1.49-4.5,1.98-8.77-3.86-10.01-34.91-7.45-69.05-21.12-105.89-7.3-24.2,9.08-49.32,10.96-74.9,2.32-14.83-5.01-30.7-6.97-47.23-10.55ZM529.9,370.09c0-.73.19-1.35-.03-1.55-23.06-21.92-46.18-43.77-69.19-65.73-5.25-5.02-8.67-.7-11.76,2.32-6.4,6.25-13.55,11.73-19.86,17.92-12.06,11.83-26.82,20.74-38.15,35.04,21.95,9.89,43.19,19.46,64.42,29.04,2.77,1.25,5.45,1.75,8.61.95,22.14-5.6,44.57-10.16,65.96-17.99ZM673.23,626.73c-.14,0-.27,0-.41-.01-.69-12.36-1.72-24.71-1.95-37.07-.13-6.81-2.3-7.85-8.35-5.55-18.7,7.11-37.48,14-56.36,20.61-5.5,1.93-6.62,6.15-7.55,10.76-4.05,20.04-7.76,40.16-12.14,60.13-1.52,6.94-.71,9.37,7.06,7.86,23.43-4.57,46.91-8.85,70.45-12.8,7.38-1.24,9.85-4.51,9.41-11.93-.64-10.63-.16-21.33-.16-32ZM689.21,357.95c-15.62-16.47-32.56-29.21-48.35-43.22-16.73-14.85-16.57-15.01-32.51-.78-1.58,1.41-3.45,2.5-5,3.94-18.21,16.95-36.38,33.93-55.94,52.19,22.06,6.02,41.97,11.75,62.06,16.71,4.22,1.04,8.8,3.13,13.66.92,21.57-9.85,43.24-19.5,66.07-29.76ZM409.01,626.64c-.21,0-.43,0-.64,0-.59,10.21-.5,20.51-1.95,30.59-1.39,9.73,3.17,12.51,11.55,13.89,22.24,3.66,44.48,7.44,66.53,12.05,9.17,1.92,10.3-1.08,8.64-8.84-4.26-19.95-8.36-39.95-12.23-59.98-.88-4.55-2.26-7.82-7.02-9.52-18.79-6.72-37.54-13.57-56.19-20.66-7.13-2.71-8.94-.12-8.78,6.69.29,11.92.08,23.85.08,35.78ZM401.99,527.15q2.02-44.09-39.27-60.57c-1.19-.47-2.54-.67-3.58-1.34-5.03-3.24-6.5-.26-7.82,4.01-6.91,22.33-13.82,44.66-21.07,66.89-1.84,5.63-.89,8.48,4.96,10.51,18.48,6.39,36.97,12.82,55.13,20.08,8.75,3.5,12.38,2.82,11.79-7.6-.6-10.62-.13-21.31-.13-31.97ZM677.3,528.98c0,9.86.45,20.94-.14,31.96-.48,8.93,2.77,10.26,10.38,7.29,18.96-7.38,37.94-14.72,57.12-21.5,5.93-2.1,6.46-4.82,5.11-10.34-5.55-22.72-13.87-44.53-20.96-66.74-2.02-6.32-5.09-6.37-10.31-3.77-8.36,4.15-16.78,8.4-25.6,11.33-13.16,4.38-19.56,11.82-16.91,26.38,1.43,7.88.9,16.12,1.31,25.39ZM539.86,782.7c9.41-23.83,17.72-44.7,25.9-65.63q10.15-25.95-10.14-45.52c-3.65-3.54-7.07-7.37-10.25-11.33-4.02-5-7.33-4.62-11.01.38-5.58,7.59-13.1,13.26-19.9,19.65-4.3,4.04-10.95,8.1-7.99,15.86,10.65,28,21.55,55.91,33.4,86.59ZM729.22,449.71c12.99-21.49,26.04-43.3,39.35-64.95,3.51-5.71,1.05-7.42-4.23-8.52-19.18-4.03-38.33-8.18-57.48-12.33-5.74-1.24-5.58,2.21-6.28,6.45-5.18,31.42,4.04,57.65,28.64,79.36ZM350.32,448.12c26.53-20.59,31.5-48.39,29.28-78.85-.41-5.68-3.29-6.16-7.63-5.22-18.7,4.04-37.37,8.23-56.1,12.08-5.99,1.23-8.25,3.05-4.44,9.11,13.25,21.09,26.23,42.36,38.89,62.88ZM449.38,296.3c-30.06-6.96-55.38-4.73-79.94,5.67-3.28,1.39-9.21,1.73-5.83,8.47,5.89,11.74,11.48,23.62,17.15,35.47,1.85,3.87,3.68,6.75,8.28,2.73,19.32-16.86,38.73-33.62,60.34-52.35ZM631.6,295.96c20.85,21.08,42.22,38.1,63.67,56.71,6.74-13.33,12.71-25.91,19.42-38.08,3.69-6.68,3.03-9.93-4.54-12.94-24.8-9.85-49.96-12.26-78.55-5.69ZM606.87,596.5c19.82-6.79,36.32-12.27,52.68-18.16,4.56-1.64,10.79-2.67,10.68-9.32-.38-22.56-1.16-45.11-1.79-67.66l-2.95-.27c-19.04,30.98-38.07,61.96-58.62,95.41ZM473.18,596.7c-20.82-33.64-40.21-64.95-59.6-96.27-1.28.39-2.57.78-3.85,1.17,0,19.6.87,39.25-.33,58.77-.7,11.33,3.6,16.05,13.61,19.1,15.81,4.83,31.31,10.69,50.18,17.23ZM531.58,782.99c-6.28-24.22-16.68-43.66-23.89-64.26-8.12-23.21-8.7-23.16-25.16-5.41-5.43,5.86-16.18,9.35-15.89,17.18.32,8.44,11.87,10.77,17.66,16.76,13.24,13.69,29.86,22.8,47.28,35.73ZM303.16,384.28c-9.18,28.66-7,54.16-1.86,79.77,1.12,5.6,4.42,5.46,8.49,3.96,10.37-3.84,20.66-7.9,31.09-11.58,3.8-1.34,4.46-2.52,2.19-6.21-12.9-20.95-25.5-42.08-39.9-65.94ZM549.92,782.2c14.25-10.44,27.44-19.64,40.09-29.53,8.31-6.5,20.99-13.08,22.43-21.27,1.83-10.35-14.74-14.47-20.18-24.14-1.01-1.8-2.9-3.09-4.31-4.67-5.43-6.06-8.35-4.95-11.09,2.72-5.86,16.38-12.93,32.33-18.77,48.72-3.05,8.56-8.26,16.64-8.17,28.16ZM776.78,385.3c-14.3,22.6-27.6,43.67-40.96,64.69-2.27,3.58-.99,4.98,2.65,6.34,10.32,3.85,20.47,8.14,30.72,12.18,5.7,2.24,8.66,1.64,10-5.83,4.56-25.44,5.29-50.58-2.4-77.38ZM772.84,370.04c-9.27-24.23-22.37-41.58-40.49-55.18-4.63-3.47-8.96-4.7-12.12,2.08-5.05,10.81-10.35,21.5-15.54,32.24-1.94,4.02-2.28,7.56,3.28,8.62,20.83,3.98,41.67,7.87,64.86,12.24ZM316.64,368.41c17.16-3.3,36.34-6.93,55.5-10.7,5.75-1.13,4.77-5.05,2.94-8.74-5.46-11.03-11.24-21.9-16.59-32.99-2.29-4.74-4.79-5-8.88-2.22-18.06,12.28-30.69,28.91-39.66,48.59-2.32,5.09-.93,7.2,6.69,6.06ZM414.09,677.49c12.28,17.93,27.38,30.87,41.7,44.54,2.71,2.58,4.86,2.41,7.61-.09,9.68-8.78,19.53-17.36,29.32-26.01-.89-1.33-1.78-2.67-2.67-4-24.86-3.84-48.82-12.18-75.96-14.44ZM400.46,660.79v-76.14c-13.58,5.34-23.44,15.07-35.27,21.52-2.61,1.42-4.32,2.75-2.17,5.76,11.23,15.78,20.71,32.9,37.44,48.86ZM589.77,691.92c-.53,1.25-1.07,2.51-1.6,3.76,9.07,8.3,18.1,16.66,27.26,24.87,1.91,1.71,3.36,5.76,7.11,2.58,15.54-13.18,29.52-27.78,43.84-45.89-28.22,3.06-52.04,10.77-76.61,14.68ZM679.96,583.82v76.73c15.5-15.99,25.45-32.18,36.43-47.57,2.17-3.04,2.04-4.63-1.54-6.8-11.55-7-22.77-14.53-34.9-22.36ZM733.78,463.88c7.7,24.49,14.87,47.29,22.47,71.47,6.16-6.14,7.01-13.1,9.14-19.23q14.65-42.18-31.61-52.24ZM323.12,536.73c7.84-26.02,14.74-48.92,22.12-73.39-12.94,4.22-24.5,7.95-36.04,11.76-2.94.97-5.27,2.13-4.33,6.29,4.09,18.12,8.48,36.1,18.25,55.34ZM330.83,553.52c5.72,17.65,16.09,29.89,22.75,44.06,2.36,5.02,5.35,4.48,9.05,2.07,10.97-7.13,21.93-14.28,34.27-22.32-21.67-10.04-43.12-16.04-66.07-23.81ZM632.45,391.56c11.33,3.67,19.29,6.31,27.29,8.83,35.47,11.17,37.51,9.32,33.29-27.69-.73-6.37-1.84-8.56-8.22-5.52-16.4,7.81-32.92,15.36-52.36,24.39ZM445.7,390.89c-18.27-8.53-35.16-16.48-52.12-24.3-3.84-1.77-7.62-2.68-7.66,3.8-.07,10.67-.24,21.34-.41,32.01-.06,3.89,1.88,5.69,5.52,4.65,17.81-5.09,36.62-6.93,54.67-16.17ZM749.27,553.39c-23.05,7.92-44.57,13.99-66.56,23.92,12.45,8,23.51,15.01,34.46,22.18,3.86,2.53,6.95,3,9.14-1.89,6.43-14.38,16.92-26.63,22.97-44.21ZM502.74,680.89c10.68-7.99,19.04-16.72,27.46-25.45,4.06-4.21,1.89-6.45-1.39-9.06-13.09-10.44-26.15-20.91-40.99-32.77,3.34,24.16,9.04,45.13,14.91,67.29ZM591.53,613.66c-15.02,12.19-27.47,22.25-39.85,32.39-2.82,2.31-6.77,4.2-2.33,8.91,8.6,9.13,17.31,18.09,28.21,26.13,3.76-22.28,11.7-42.56,13.97-67.43ZM699.26,420.77c-9.45,17.91-15.26,35.2-19.21,54.34,14.38-4.36,26.38-10.34,38.33-16.53,4.66-2.41,4.94-4.83,1.88-8.88-6.85-9.07-13.38-18.38-21.01-28.93ZM400.29,475.25c-5.96-18.62-10.27-36.14-20.08-52.65-7.24,9.87-13.64,18.81-20.3,27.55-2.79,3.67-2.25,5.88,1.85,7.75,12.28,5.59,23.47,13.57,38.53,17.35ZM477.23,391.46c14.9,7.96,28.45,9.13,41.41,11.93,20.18,4.36,17.14,7.33,17.66-15.01.04-1.7-.05-3.4-.14-5.1-.19-3.8-2.2-5.38-5.89-4.5-16.78,3.98-33.55,8.01-53.04,12.68ZM600.64,394.81c.4-1.12.81-2.24,1.21-3.37-12.96-3.26-25.88-6.69-38.89-9.74-19.92-4.67-19.94-4.56-18.97,16.18.04.85.1,1.71.06,2.56-.2,5,1.54,6.69,6.88,5.42,16.51-3.95,33.13-7.41,49.71-11.05ZM535.21,363c1.88-18.85-32.31-49.99-59.38-55.03,20.28,18.79,39.06,36.2,59.38,55.03ZM604.92,307.07c-20.05,7.5-37.12,18.31-52.67,31.68-7.22,6.21-10.47,12.53-6.3,23.12,20.11-18.69,39.54-36.74,58.97-54.8Z"/>
</svg>