<?xml version="1.0" encoding="utf-8"?>
<!-- Generator: Adobe Illustrator 28.4.0, SVG Export Plug-In . SVG Version: 6.00 Build 0)  -->
<svg version="1.1" baseProfile="basic" id="Layer_1"
	 xmlns="http://www.w3.org/2000/svg" xmlns:xlink="http://www.w3.org/1999/xlink" x="0px" y="0px" viewBox="0 0 1080 1080"
	 xml:space="preserve">
<g>
	<path style="fill:#8DA7B2;stroke:#8DA7B2;stroke-width:6;stroke-miterlimit:10;" d="M896.58,539.92
		c0,126.29-0.01,252.58,0.01,378.88c0,9.02,0.11,18.05,0.32,27.07c0.26,10.83-4.73,18.79-12.33,26.15
		c-11.72,11.36-22.68,23.5-33.98,35.3c-8.94,9.33-17.8,18.74-26.88,27.93c-4.81,4.87-10.76,7.18-17.77,7.18
		c-154.72-0.09-309.44-0.12-464.17-0.15c-4.88,0-9.76,0.04-14.64,0.12c-7.12,0.12-13.06-2.54-17.95-7.63
		c-19.92-20.76-39.82-41.54-59.74-62.3c-1.69-1.76-3.42-3.49-5.23-5.11c-5.28-4.73-7.04-10.91-7.38-17.66
		c-0.12-2.31-0.05-4.64-0.05-6.95c0-267.47,0-534.94,0.02-802.41c0-4.74-0.09-9.52,0.53-14.2c1.05-7.96,6.4-13.34,11.85-18.74
		c8.92-8.84,17.54-17.98,26.23-27.04c11.39-11.88,22.66-23.88,34.11-35.7c5.2-5.37,11.75-7.56,19.21-7.35
		c7.19,0.2,14.39,0.25,21.58,0.25c149.72,0.01,299.44,0.03,449.16-0.05c6.74,0,13.48-0.59,19.36,3.46c2.59,1.78,5.07,3.82,7.24,6.08
		c19.17,19.97,38.25,40.02,57.36,60.04c0.25,0.26,0.5,0.55,0.8,0.75c10.09,7,12.52,16.97,12.51,28.7
		c-0.18,134.47-0.11,268.93-0.11,403.4C896.62,539.92,896.6,539.92,896.58,539.92z M390.51,209.74c-1.05,28.2-2.05,55.84-3.11,83.48
		c-1.32,34.46-2.7,68.92-4.02,103.38c-1.07,28.13-1.97,56.27-3.16,84.4c-1.44,34.1-2.51,68.17-0.7,102.33
		c2.03,38.34,3.03,76.72,4.5,115.09c1.31,34.34,2.66,68.68,3.97,103.02c0.81,21.32,1.59,42.63,2.37,63.95
		c0.09,2.53-0.28,4.89,3.67,5.19c26,1.97,51.99,4.16,77.97,6.29c24.05,1.97,48.1,4.03,72.16,5.92c8.74,0.69,17.53,1.72,26.25,1.36
		c14.23-0.6,28.42-2.25,42.64-3.41c42.27-3.46,84.55-6.91,126.83-10.28c2.38-0.19,2.99-0.98,3.08-3.3c0.74-20.7,1.64-41.4,2.44-62.1
		c1.1-28.62,2.15-57.25,3.23-85.87c1.69-44.7,3.39-89.39,5.09-134.09c0.58-15.34,1.84-30.7,1.59-46.03
		c-0.4-24.61-1.81-49.2-2.75-73.79c-1.18-30.81-2.31-61.62-3.47-92.43c-1.76-46.41-3.52-92.81-5.29-139.21
		c-0.3-7.89-0.62-15.78-0.94-23.74c-1.2-0.16-2.03-0.31-2.86-0.38c-46.76-3.88-93.52-7.77-140.29-11.61
		c-11.41-0.94-22.86-2.67-34.25-2.35c-16.55,0.46-33.06,2.43-49.58,3.8c-32.19,2.66-64.38,5.35-96.57,8.02
		C409.85,208.15,400.39,208.92,390.51,209.74z M243.41,953.11c5.75-3.92,10.82-7.42,15.94-10.86
		c17.66-11.88,35.32-23.79,53.05-35.56c2.05-1.36,2.55-2.83,2.53-5.1c-0.1-10.74-0.04-21.47-0.04-32.21
		c0-230.12-0.01-460.24,0.04-690.37c0-2.75-0.51-4.61-3.06-6.3c-18.97-12.63-37.8-25.46-56.68-38.22c-3.77-2.55-7.59-5.03-11.78-7.8
		C243.41,402.32,243.41,677.29,243.41,953.11z M889.92,126.65c-22.91,15.44-45.35,30.65-67.93,45.64c-2.84,1.88-3.66,3.81-3.66,7.05
		c0.07,226.56,0.07,453.12,0.06,679.67c0,14.27,0.05,28.55-0.06,42.82c-0.02,2.34,0.7,3.68,2.68,5.01
		c17.55,11.67,35,23.48,52.5,35.24c5.3,3.56,10.63,7.07,16.4,10.91C889.92,677.3,889.92,402.26,889.92,126.65z M811.41,1034.63
		c-0.63-1.1-1.07-1.93-1.57-2.72c-13.47-21.56-27-43.08-40.36-64.71c-1.68-2.72-3.43-3.76-6.67-3.76
		c-128.72,0.09-257.45,0.07-386.17,0.07c-2.68,0-5.39-0.19-8.04,0.09c-1.22,0.13-2.82,0.87-3.44,1.85
		c-11.78,18.66-23.44,37.39-35.11,56.11c-2.61,4.19-5.16,8.41-8.02,13.07C485.51,1034.63,648.3,1034.63,811.41,1034.63z
		 M322.13,45.25c0.39,0.83,0.55,1.26,0.79,1.65c13.91,22.15,27.86,44.26,41.66,66.48c1.35,2.18,2.66,2.94,5.17,2.94
		c131.26-0.06,262.52-0.06,393.78,0.01c2.7,0,4.15-0.93,5.51-3.11c11.65-18.73,23.41-37.39,35.11-56.09
		c2.35-3.76,4.61-7.58,7.21-11.88C647.98,45.25,485.32,45.25,322.13,45.25z M318.19,193.94c-0.16,0.03-0.32,0.05-0.47,0.08
		c0,230.4,0,460.81,0,691.21c0.64-0.41,0.81-0.86,0.88-1.31c2.29-14.2,4.56-28.4,6.84-42.6c4.96-30.93,9.9-61.85,14.89-92.77
		c5.05-31.27,10.14-62.54,15.21-93.8c5.59-34.52,11.22-69.04,16.72-103.58c0.76-4.77,1.88-9.8,1.16-14.45
		c-6.49-41.78-13.36-83.51-20.1-125.25c-5.52-34.16-11-68.32-16.51-102.49c-5.03-31.16-10.07-62.32-15.1-93.48
		C320.53,208.31,319.35,201.12,318.19,193.94z M815.79,194.45c-0.14,0-0.28-0.01-0.43-0.01c-0.3,1.28-0.68,2.55-0.89,3.85
		c-5.63,34.87-11.25,69.74-16.87,104.61c-5.7,35.36-11.37,70.73-17.08,106.09c-6.42,39.8-12.9,79.59-19.29,119.39
		c-0.73,4.54-1.94,9.27-1.36,13.71c1.9,14.48,4.55,28.87,6.87,43.3c7.66,47.63,15.28,95.27,22.96,142.89
		c7.25,44.97,14.55,89.93,21.84,134.89c1.22,7.55,2.46,15.1,3.7,22.65c0.18-0.03,0.37-0.05,0.55-0.08
		C815.79,655.31,815.79,424.88,815.79,194.45z M375.98,959.71c0.03,0.19,0.06,0.38,0.09,0.57c126.99,0,253.98,0,382.1,0
		c-1.44-0.77-1.88-1.07-2.36-1.25c-18.96-6.99-37.92-13.97-56.88-20.96c-43.18-15.93-86.35-31.88-129.56-47.73
		c-1.54-0.56-3.63-0.58-5.17-0.03c-16.28,5.87-32.49,11.91-48.73,17.89c-32.59,12.01-65.19,23.99-97.78,36.01
		C403.77,949.35,389.88,954.54,375.98,959.71z M376.05,119.35c-0.06,0.25-0.12,0.49-0.18,0.74c1.33,0.49,2.66,0.97,3.98,1.46
		c21.37,7.84,42.75,15.64,64.09,23.53c36.54,13.51,73.15,26.84,109.52,40.8c9.02,3.46,17.25,5.18,25.85-0.12
		c0.2-0.12,0.46-0.15,0.69-0.24c29.5-10.86,59.01-21.71,88.51-32.58c23.44-8.64,46.87-17.29,70.31-25.95
		c6.33-2.34,12.66-4.71,18.99-7.06c-0.05-0.19-0.11-0.38-0.16-0.57C630.46,119.35,503.26,119.35,376.05,119.35z M375.21,556.98
		c-0.44,0.01-0.89,0.02-1.33,0.02c-18.57,115.19-37.13,230.37-55.83,346.34c11.4-5.44,21.8-10.42,32.22-15.36
		c10.99-5.21,22.01-10.37,32.99-15.59c1.81-0.86,3.5-1.55,3.38-4.41c-1.44-33.47-2.74-66.95-4.02-100.42
		c-1.3-33.97-2.55-67.95-3.82-101.93c-1.2-32.15-2.41-64.3-3.57-96.45C375.09,565.12,375.21,561.05,375.21,556.98z M373.87,522.62
		c0.28-0.01,0.55-0.01,0.83-0.02c0.05-0.57,0.11-1.15,0.13-1.72c1.22-32.03,2.43-64.07,3.65-96.1c1.76-46.16,3.51-92.32,5.28-138.48
		c0.94-24.72,1.87-49.44,2.91-74.16c0.1-2.4-0.92-3.53-2.85-4.45c-16.59-7.89-33.15-15.83-49.74-23.72
		c-5.09-2.42-10.24-4.74-15.99-7.39C336.77,292.49,355.32,407.56,373.87,522.62z M815.35,176.76c-1.44,0.54-2.37,0.8-3.22,1.21
		c-20.18,9.64-40.3,19.44-60.6,28.84c-3.98,1.84-4.72,4.01-4.55,8.02c1.19,26.66,2.1,53.33,3.11,80c1.22,32.5,2.42,65.01,3.66,97.51
		c1.46,38.47,2.98,76.95,4.41,115.42c0.18,4.87,0.02,9.75,0.02,14.62c0.45,0.01,0.9,0.02,1.35,0.03
		C778.12,407.33,796.7,292.25,815.35,176.76z M815.39,903.29c-18.68-115.71-37.25-230.7-55.82-345.69
		c-0.96,2.64-1.13,5.18-1.23,7.73c-1.47,38.73-2.93,77.46-4.38,116.19c-1.08,28.74-2.12,57.48-3.21,86.22
		c-1.24,33-2.47,66.01-3.83,99.01c-0.12,3.02,0.85,4.57,3.54,5.82c15.1,7.03,30.13,14.22,45.19,21.36
		C802.01,896.93,808.36,899.95,815.39,903.29z M368.19,120.37c0,1.01-0.05,1.26,0.01,1.48c7.08,26.97,14.2,53.93,21.19,80.93
		c0.61,2.34,1.86,2.42,3.7,2.26c6.67-0.59,13.35-1.13,20.03-1.68c44.32-3.65,88.64-7.29,132.96-10.94
		c4.01-0.33,8.01-0.75,12.02-1.13c0-0.25,0-0.49,0-0.74C494.93,167.2,431.76,143.86,368.19,120.37z M765.56,120.24
		c-63.86,23.6-126.96,46.92-190.06,70.24c0.06,0.3,0.11,0.61,0.17,0.91c55.79,4.6,111.59,9.21,167.7,13.83
		C750.75,176.97,758.05,149.03,765.56,120.24z M317.71,1033.7c15.24-24.47,30.09-48.33,45.04-72.34
		c-15.44-17.46-30.76-34.78-46.23-52.26c-24.22,16.32-47.99,32.32-71.93,48.45C269.05,983.01,293.16,1008.12,317.71,1033.7z
		 M815.82,1033.67c24.59-25.63,48.66-50.73,73.02-76.12c-24.18-16.26-48.06-32.33-71.85-48.33c-0.68,0.57-0.99,0.78-1.22,1.04
		c-14.58,16.55-29.17,33.1-43.65,49.74c-0.63,0.72-0.61,2.74-0.05,3.64c10.46,16.97,21.03,33.87,31.6,50.77
		C807.59,1020.66,811.54,1026.89,815.82,1033.67z M362.66,118.13c-15.04-24.06-29.91-47.85-45.01-72
		c-24.49,25.48-48.63,50.58-73.03,75.97c24.04,16.26,47.9,32.41,72.06,48.75C332.08,153.18,347.29,135.74,362.66,118.13z
		 M558.11,889.26c-0.05-0.27-0.11-0.54-0.16-0.81c-7.94-0.65-15.88-1.29-23.82-1.95c-46.98-3.88-93.97-7.75-140.95-11.7
		c-2.45-0.21-3.36,0.48-3.98,2.86c-6.08,23.45-12.3,46.86-18.45,70.28c-0.94,3.59-1.78,7.22-2.82,11.47
		C431.79,935.86,494.95,912.56,558.11,889.26z M575.63,888.42c-0.09,0.29-0.18,0.58-0.28,0.86
		c63.14,23.29,126.28,46.58,190.24,70.18c-7.53-28.74-14.84-56.6-22.24-84.84C687.28,879.23,631.46,883.82,575.63,888.42z
		 M816.86,170.73c24.13-16.31,47.86-32.35,71.92-48.62c-24.38-25.33-48.56-50.46-73.04-75.89c-15.21,24.3-30.11,48.11-45.04,71.96
		C786.1,135.71,801.36,153.08,816.86,170.73z M747.92,203.65c22.68-10.8,44.53-21.21,66.65-31.74c-15.11-17.09-29.89-33.81-45.09-51
		C762.22,148.77,755.2,175.7,747.92,203.65z M747.86,876.13c7.3,27.87,14.36,54.87,21.67,82.79c15.24-17.32,29.98-34.06,44.97-51.1
		C792.21,897.21,770.44,886.86,747.86,876.13z M385.6,203.7c-7.3-27.8-14.42-54.9-21.79-82.97c-15.24,17.44-29.91,34.23-44.78,51.24
		C341.35,182.61,363.13,192.99,385.6,203.7z M363.85,958.93c7.29-27.79,14.4-54.89,21.73-82.81
		c-22.65,10.78-44.58,21.22-66.56,31.68C333.99,924.86,348.66,941.6,363.85,958.93z"/>
</g>
<path style="fill:#B6CED8;" d="M813.77,45.72l75.05,77.85v833.17l-77.56,77.55h-490.8l-75.84-78.9V123.44l77.73-77.73H813.77
	 M817.59,36.72H318.61l-83,83v839.29l81.01,84.28h498.36l82.83-82.82V119.94L817.59,36.72L817.59,36.72z"/>
</svg>
