<?xml version="1.0" encoding="UTF-8"?>
<svg id="Layer_1" data-name="Layer 1" xmlns="http://www.w3.org/2000/svg" viewBox="0 0 1080 1080">
  <defs>
    <style>
      .cls-1 {
        fill: #8da7b2;
      }

      .cls-1, .cls-2 {
        stroke-width: 0px;
      }

      .cls-2 {
        fill: #b6ced8;
      }
    </style>
  </defs>
  <path class="cls-1" d="M792.21,445.11c-4.16-21.3-9.14-42.12-14.98-62.42-1.33-3.49-2.69-6.97-4.09-10.46-22.39-55.86-53.58-112.26-92.72-167.63-48.87-69.16-98.31-119.67-121.4-141.85-.01-.01-.02-.02-.03-.03-.27-.21-.55-.42-.83-.63-12.95-9.74-22.65-11.66-35.02-.31-4.05,3.71-8.17,7.34-12.35,10.93-25.63,25.54-68.64,71.63-111.22,131.89-39.14,55.37-70.33,111.77-92.72,167.63-3.11,7.76-6.05,15.52-8.83,23.26-33.52,119.48-30.25,246.99,5.63,380.94.08.3.16.6.25.9.96,2.5,1.95,5.01,2.95,7.51,22.39,55.86,53.58,112.26,92.72,167.63,58.62,82.96,118.06,139.08,131.85,151.67.01.01.02.01.02.01,5.42,2.84,10.31,3.52,15.48,1.48,9.82-8.84,72.11-66.28,133.5-153.16,39.14-55.37,70.33-111.77,92.72-167.63,1.7-4.25,3.35-8.49,4.96-12.73,17.7-64.37,26.88-133.93,28.87-208.99-3.35-27.71-6.06-73.45-14.76-118.01ZM777.67,437.93c6.95,32.55,11.35,65.93,13.77,100.28-44.04-58-46.64-123.81-47.18-189.76-.05-5.54-.08-11.08-.12-16.62,14.88,34.47,25.79,69.77,33.53,106.1ZM495.85,977.35c13.51-15.56,28.07-30.22,44.5-47.61,16.7,17.57,32.15,33.16,46.62,49.62,2.95,3.36,4.65,11.2,2.78,14.88-15.26,30.16-31.51,59.81-49.45,93.36-18-34-34.24-63.76-49.23-94.14-1.87-3.78,1.33-12.13,4.78-16.11ZM481.67,972.34c-16.43-55.41-31.88-107.53-47.33-159.64,1.25-.73,2.5-1.45,3.74-2.17,30.39,35.47,60.78,70.94,93.26,108.85-16.57,17.67-31.99,34.1-49.67,52.96ZM549.63,919.38c31.72-37.05,62.53-73.03,93.34-109,1.21.59,2.42,1.19,3.63,1.78-15.52,52.37-31.03,104.74-47.45,160.16-17.74-18.97-33.12-35.42-49.52-52.94ZM638.89,794.97c-32.63,36.7-64.16,74.37-98.53,114.45-39.66-46.4-77.65-90.55-115.11-135.16-3.8-4.54-4.91-11.67-6.36-17.81-12.63-53.32-25.46-106.6-37.18-160.12-2.33-10.61-2.06-22.61.26-33.27,11.37-52.14,23.36-104.17,36.3-155.95,2.8-11.21,8.68-22.64,16.06-31.55,34.07-41.09,69.17-81.32,109.08-127.91,3.15,6.37,4.77,12.22,8.32,16.43,27.06,32.15,53.55,64.86,82.17,95.58,18.72,20.1,29.17,42.45,34.54,69.08,9.28,46.02,21.23,91.5,31.18,137.39,2.02,9.29,1.86,19.8-.19,29.1-10.88,49.33-23.54,98.28-33.75,147.74-4.22,20.44-13.15,36.66-26.79,52ZM333.77,678.93c-14.25-31.76-28.44-63.1-42.21-94.64-1.24-2.84-.66-7.31.68-10.32,13.51-30.39,27.36-60.64,41.75-92.33,32.84,66.31,33.21,130.75-.22,197.29ZM352.82,452.3c15.38-14.45,31.4-28.22,47.19-42.23,1.01.95,2.02,1.9,3.04,2.85-10.3,43.65-20.59,87.29-30.89,130.94-1.35.14-2.69.28-4.04.42-7-26.41-14.33-52.74-20.64-79.32-.87-3.67,2.21-9.72,5.34-12.66ZM347.74,693.87c6.43-25.87,13.52-51.57,20.4-77.33,1.39.09,2.78.18,4.17.26,10.21,43.59,20.43,87.17,30.65,130.76-1.14.93-2.28,1.85-3.42,2.78-16.44-14.89-33.08-29.57-49.1-44.9-2.45-2.34-3.58-8.06-2.7-11.57ZM587.36,180.83c-14.7,16.35-30.13,32.06-45.73,48.43-3.2-1.7-3.96-1.89-4.4-2.37-15.99-17.2-41.31-32.61-45.13-52.2-3.46-17.79,16.25-40.26,26.2-60.44,6.19-12.59,13.22-24.76,22.16-41.36,18.09,33.99,34.52,64.29,50.12,95.01,1.56,3.08-.52,9.92-3.22,12.93ZM599.19,188.46c16.44,55.27,31.91,107.32,47.39,159.36-1.2.8-2.39,1.6-3.59,2.39-30.9-35.99-61.81-71.99-93.65-109.08,16.55-17.48,31.98-33.79,49.85-52.67ZM531.39,241.14c-31.9,37.25-62.67,73.16-93.43,109.06-1.22-.65-2.43-1.31-3.65-1.96,15.34-51.88,30.67-103.77,47.32-160.08,17.87,19.03,33.45,35.61,49.76,52.98ZM676.18,405.43c21.3,19.25,37.99,34.09,54.28,49.37,2.17,2.04,3.73,6.69,3.04,9.51-6.51,26.52-13.56,52.91-25.03,78.87-10.25-43.72-20.5-87.45-32.29-137.75ZM708.29,618.34c1.66-.25,3.32-.5,4.98-.74,6.81,26.36,13.87,52.66,20.1,79.15.73,3.11-2.18,8.24-4.92,10.82-15.46,14.56-31.39,28.63-47.16,42.87-1.17-.76-2.33-1.52-3.49-2.28,10.16-43.28,20.32-86.55,30.49-129.82ZM746.05,479.64c15.19,33.39,28.9,63.04,42.02,92.95,1.77,4.05,2.2,10.11.48,14.04-13.28,30.46-27.25,60.63-41.73,92.5-31.79-66.59-32.11-119.44-.77-199.49ZM727.19,310.83c.06,1,.12,1.99.18,2.99,2.44,40.22,4.88,80.57,7.67,126.59-22.95-20.7-41.53-37.47-61.36-55.36,16.62-26,32.5-50.82,48.37-75.64,1.17.32,2.35.65,3.52.97.54.15,1.08.3,1.62.45ZM716.44,293.51c-16.35,25.37-31.79,49.31-49.35,76.54-17.62-59.4-33.83-114.03-50.03-168.66,1.15-.88,2.31-1.76,3.46-2.64,25.74,21.16,51.48,42.31,77.99,64.11,8.13,6.68,16.33,13.42,24.63,20.25-2.26,3.5-4.49,6.97-6.7,10.4ZM701.58,244.37c-9.41-6.48-18.76-13.02-27.92-19.73-44.36-32.56-84.05-69.48-103.02-126.2-1.37-4.08-2.62-8.27-3.77-12.57,56.13,45.39,100.92,97.2,134.71,158.5ZM513.94,86.03c-.99,3.75-2.07,7.41-3.23,11-18.86,58.2-59.75,95.61-105.11,128.68-8.58,6.25-17.31,12.35-26.08,18.4,33.83-61.32,78.31-113.01,134.42-158.08ZM380.48,264.54c26.72-22,53.11-43.73,79.49-65.46,1.26.7,2.53,1.4,3.79,2.1-16.17,54.73-32.33,109.47-49.94,169.09-18.01-28.04-33.6-52.31-49.81-77.55-2.03-3.17-4.08-6.36-6.14-9.57,7.57-6.23,15.1-12.43,22.61-18.61ZM353.7,311.05c.16-.06.31-.12.47-.18,1.46-.57,2.93-1.13,4.38-1.7,15.72,24.41,31.44,48.82,48.72,75.66-18.69,16.93-37.27,33.78-55.85,50.62-1.76-.73-3.51-1.47-5.27-2.21,2.5-40.46,5.01-80.92,7.5-121.38.02-.27.03-.54.05-.81ZM336.64,331.89c-.11,5.06-.19,10.12-.26,15.19-.94,64.29-.78,129.32-45.58,187.83,1.39-37.49,6.53-73.24,14.81-107.91,7.75-32.46,18.26-63.98,31.03-95.11ZM302.88,720.97c-6.58-30.8-10.76-62.58-12.63-95.73,44.35,57.11,45.3,120.85,45.87,184.2.06,5.68.1,11.36.18,17.03-14.6-34.24-25.68-69.2-33.42-105.5ZM353.67,849.25c-.09-1.52-.19-3.03-.28-4.55-2.4-39.27-4.82-78.78-7.61-124.53,23.07,20.73,41.61,37.39,61.39,55.17-16.65,26.03-32.53,50.86-48.42,75.69-.83-.29-1.65-.58-2.48-.87-.87-.31-1.74-.61-2.6-.91ZM365.1,866.28c15.6-24.37,31.21-48.75,48.65-75.98,17.6,59.44,33.82,114.22,50.04,168.99-1.16.75-2.32,1.49-3.49,2.24-24.76-20.26-49.52-40.51-75.2-61.51-8.98-7.34-18.07-14.78-27.31-22.33,2.44-3.81,4.87-7.61,7.31-11.41ZM380.14,917.2c10.36,7.1,20.64,14.27,30.66,21.68,41.96,31.04,79.3,66.41,98.22,119.43,1.86,5.18,3.54,10.53,5.02,16.06-55.97-44.51-100.11-96.32-133.9-157.17ZM567.89,1073.41c1.48-5.97,3.2-11.71,5.14-17.26,18.03-51.59,54.99-85.62,95.5-116.33,11-8.34,22.27-16.43,33.49-24.57-33.79,61.25-77.99,113.69-134.13,158.16ZM694.23,901.1c-24.71,20.29-49.29,40.46-73.87,60.64-1.12-.72-2.25-1.45-3.37-2.17,16.19-54.73,32.37-109.47,50.02-169.13,17.22,26.67,32.4,50.17,48.41,74.95,2.55,3.95,5.12,7.93,7.73,11.97-9.67,7.94-19.31,15.85-28.92,23.74ZM727.1,849.96c-1.28.37-2.57.74-3.85,1.1-.29.08-.57.16-.86.24-15.84-24.59-31.68-49.19-48.83-75.82,19.49-17.52,38.23-34.37,61.47-55.26-2.7,44.09-5.1,83.53-7.5,122.72-.14,2.34-.29,4.68-.43,7.02ZM744.1,828.6c.04-6.64.07-13.28.13-19.92.56-64.43,3.72-128.49,46.84-186.02-1.9,29.49-5.3,58.23-10.56,86.3-7.73,41.24-19.48,81.04-36.41,119.64Z"/>
  <path class="cls-2" d="M777.24,382.69c-1.33-3.49-2.69-6.97-4.09-10.46-22.39-55.86-53.58-112.26-92.72-167.63-48.87-69.16-98.31-119.67-121.4-141.85-.01-.01-.02-.02-.03-.03-8.33-8-13.22-12.31-13.4-12.47l-5.59-4.9-5.6,4.9c-.24.22-9.17,8.08-23.61,22.46-25.63,25.54-68.64,71.63-111.22,131.89-39.14,55.37-70.33,111.77-92.72,167.63-3.11,7.76-6.05,15.52-8.83,23.26-22.24,62.15-33.5,123.62-33.5,183.05,0,64.44,13.24,131.28,39.38,198.79.96,2.5,1.95,5.01,2.95,7.51,22.39,55.86,53.58,112.26,92.72,167.63,58.62,82.96,118.06,139.08,131.85,151.67.01.01.02.01.02.01,1.86,1.7,2.88,2.6,2.96,2.67l5.6,4.9,5.59-4.9s.51-.44,1.33-1.19c9.82-8.84,72.11-66.28,133.5-153.16,39.14-55.37,70.33-111.77,92.72-167.63,1.7-4.25,3.35-8.49,4.96-12.73,24.8-65.73,37.37-130.79,37.37-193.57s-12.86-129.35-38.24-195.85ZM723.25,851.06c-2.58,4.85-5.2,9.63-7.83,14.33-6.97,12.43-14.07,24.35-21.19,35.71-8.61,13.76-17.25,26.7-25.69,38.72-.58.84-1.16,1.67-1.75,2.5-34.16,48.39-68.58,87.46-93.75,113.83-14.91,15.62-26.57,26.78-33.03,32.78-6.16-5.72-17.05-16.13-30.98-30.62-25.33-26.37-60.7-66.26-95.81-115.99-.8-1.14-1.61-2.28-2.41-3.44-8.45-12.07-17.09-25.05-25.71-38.86-6.72-10.76-13.43-22.02-20-33.74-2.98-5.28-5.92-10.65-8.83-16.12-.96-1.81-1.92-3.63-2.88-5.46-5.95-11.39-11.74-23.16-17.27-35.26-12.74-27.83-24.18-57.46-33.24-88.47-13.16-44.99-21.35-92.9-21.35-142.43,0-52.9,9.33-103.92,24.08-151.54,8.66-27.92,19.17-54.66,30.77-79.92,5.53-12.09,11.33-23.84,17.28-35.22.17-.33.34-.66.52-.99,3.23-6.16,6.51-12.21,9.83-18.15,5.42-9.71,10.93-19.11,16.47-28.18,8.38-13.74,16.82-26.71,25.12-38.83,2.56-3.73,5.1-7.39,7.62-10.96,35.89-50.83,72.05-91.38,97.49-117.72,13.12-13.59,23.39-23.4,29.3-28.88,6.11,5.67,16.88,15.97,30.64,30.29,25.37,26.37,60.89,66.38,96.14,116.31,2.28,3.23,4.58,6.53,6.88,9.89,8.2,11.93,16.54,24.7,24.84,38.22,6.03,9.83,12.03,20.06,17.93,30.65,3.08,5.53,6.13,11.15,9.13,16.87.6,1.14,1.2,2.29,1.8,3.44,5.82,11.19,11.48,22.75,16.89,34.63,12.85,28.14,24.34,58.11,33.41,89.48,12.84,44.47,20.81,91.74,20.81,140.61,0,45.15-6.8,88.95-17.97,130.42-9.46,35.1-22.04,68.53-36.28,99.72-5.35,11.75-10.95,23.18-16.7,34.26-1.42,2.73-2.84,5.44-4.28,8.12Z"/>
</svg>